<?xml version="1.0" encoding="utf-8" standalone="no"?>
<!DOCTYPE svg PUBLIC "-//W3C//DTD SVG 1.1//EN"
  "http://www.w3.org/Graphics/SVG/1.1/DTD/svg11.dtd">
<svg xmlns:xlink="http://www.w3.org/1999/xlink" width="576pt" height="576pt" viewBox="0 0 576 576" xmlns="http://www.w3.org/2000/svg" version="1.1">
 <metadata>
  <rdf:RDF xmlns:dc="http://purl.org/dc/elements/1.1/" xmlns:cc="http://creativecommons.org/ns#" xmlns:rdf="http://www.w3.org/1999/02/22-rdf-syntax-ns#">
   <cc:Work>
    <dc:type rdf:resource="http://purl.org/dc/dcmitype/StillImage"/>
    <dc:date>2023-01-03T09:05:12.308398</dc:date>
    <dc:format>image/svg+xml</dc:format>
    <dc:creator>
     <cc:Agent>
      <dc:title>Matplotlib v3.6.2, https://matplotlib.org/</dc:title>
     </cc:Agent>
    </dc:creator>
   </cc:Work>
  </rdf:RDF>
 </metadata>
 <defs>
  <style type="text/css">*{stroke-linejoin: round; stroke-linecap: butt}</style>
 </defs>
 <g id="figure_1">
  <g id="patch_1">
   <path d="M 0 576 
L 576 576 
L 576 0 
L 0 0 
z
" style="fill: #ffffff"/>
  </g>
  <g id="axes_1">
   <g id="patch_2">
    <path d="M 72 512.64 
L 518.4 512.64 
L 518.4 69.12 
L 72 69.12 
z
" style="fill: #ffffff"/>
   </g>
   <g id="PathCollection_1">
    <defs>
     <path id="C0_0_e0848ca64e" d="M 0 3 
C 0.795609 3 1.55874 2.683901 2.12132 2.12132 
C 2.683901 1.55874 3 0.795609 3 -0 
C 3 -0.795609 2.683901 -1.55874 2.12132 -2.12132 
C 1.55874 -2.683901 0.795609 -3 0 -3 
C -0.795609 -3 -1.55874 -2.683901 -2.12132 -2.12132 
C -2.683901 -1.55874 -3 -0.795609 -3 0 
C -3 0.795609 -2.683901 1.55874 -2.12132 2.12132 
C -1.55874 2.683901 -0.795609 3 0 3 
z
"/>
    </defs>
    <g clip-path="url(#p2b56a30484)">
     <use xlink:href="#C0_0_e0848ca64e" x="121.277922" y="98.88" style="fill: #0000ff; stroke: #0000ff"/>
    </g>
    <g clip-path="url(#p2b56a30484)">
     <use xlink:href="#C0_0_e0848ca64e" x="101.953247" y="98.88" style="fill: #0000ff; stroke: #0000ff"/>
    </g>
    <g clip-path="url(#p2b56a30484)">
     <use xlink:href="#C0_0_e0848ca64e" x="179.251948" y="98.88" style="fill: #0000ff; stroke: #0000ff"/>
    </g>
    <g clip-path="url(#p2b56a30484)">
     <use xlink:href="#C0_0_e0848ca64e" x="159.927273" y="98.88" style="fill: #0000ff; stroke: #0000ff"/>
    </g>
    <g clip-path="url(#p2b56a30484)">
     <use xlink:href="#C0_0_e0848ca64e" x="140.602597" y="98.88" style="fill: #0000ff; stroke: #0000ff"/>
    </g>
    <g clip-path="url(#p2b56a30484)">
     <use xlink:href="#C0_0_e0848ca64e" x="237.225974" y="118.08" style="fill: #0000ff; stroke: #0000ff"/>
    </g>
    <g clip-path="url(#p2b56a30484)">
     <use xlink:href="#C0_0_e0848ca64e" x="101.953247" y="118.08" style="fill: #0000ff; stroke: #0000ff"/>
    </g>
    <g clip-path="url(#p2b56a30484)">
     <use xlink:href="#C0_0_e0848ca64e" x="198.576623" y="118.08" style="fill: #0000ff; stroke: #0000ff"/>
    </g>
    <g clip-path="url(#p2b56a30484)">
     <use xlink:href="#C0_0_e0848ca64e" x="217.901299" y="118.08" style="fill: #0000ff; stroke: #0000ff"/>
    </g>
    <g clip-path="url(#p2b56a30484)">
     <use xlink:href="#C0_0_e0848ca64e" x="256.550649" y="118.08" style="fill: #0000ff; stroke: #0000ff"/>
    </g>
    <g clip-path="url(#p2b56a30484)">
     <use xlink:href="#C0_0_e0848ca64e" x="333.849351" y="137.28" style="fill: #0000ff; stroke: #0000ff"/>
    </g>
    <g clip-path="url(#p2b56a30484)">
     <use xlink:href="#C0_0_e0848ca64e" x="275.875325" y="137.28" style="fill: #0000ff; stroke: #0000ff"/>
    </g>
    <g clip-path="url(#p2b56a30484)">
     <use xlink:href="#C0_0_e0848ca64e" x="314.524675" y="137.28" style="fill: #0000ff; stroke: #0000ff"/>
    </g>
    <g clip-path="url(#p2b56a30484)">
     <use xlink:href="#C0_0_e0848ca64e" x="101.953247" y="137.28" style="fill: #0000ff; stroke: #0000ff"/>
    </g>
    <g clip-path="url(#p2b56a30484)">
     <use xlink:href="#C0_0_e0848ca64e" x="295.2" y="137.28" style="fill: #0000ff; stroke: #0000ff"/>
    </g>
    <g clip-path="url(#p2b56a30484)">
     <use xlink:href="#C0_0_e0848ca64e" x="372.498701" y="156.48" style="fill: #0000ff; stroke: #0000ff"/>
    </g>
    <g clip-path="url(#p2b56a30484)">
     <use xlink:href="#C0_0_e0848ca64e" x="391.823377" y="156.48" style="fill: #0000ff; stroke: #0000ff"/>
    </g>
    <g clip-path="url(#p2b56a30484)">
     <use xlink:href="#C0_0_e0848ca64e" x="411.148052" y="156.48" style="fill: #0000ff; stroke: #0000ff"/>
    </g>
    <g clip-path="url(#p2b56a30484)">
     <use xlink:href="#C0_0_e0848ca64e" x="101.953247" y="156.48" style="fill: #0000ff; stroke: #0000ff"/>
    </g>
    <g clip-path="url(#p2b56a30484)">
     <use xlink:href="#C0_0_e0848ca64e" x="353.174026" y="156.48" style="fill: #0000ff; stroke: #0000ff"/>
    </g>
    <g clip-path="url(#p2b56a30484)">
     <use xlink:href="#C0_0_e0848ca64e" x="469.122078" y="175.68" style="fill: #0000ff; stroke: #0000ff"/>
    </g>
    <g clip-path="url(#p2b56a30484)">
     <use xlink:href="#C0_0_e0848ca64e" x="449.797403" y="175.68" style="fill: #0000ff; stroke: #0000ff"/>
    </g>
    <g clip-path="url(#p2b56a30484)">
     <use xlink:href="#C0_0_e0848ca64e" x="101.953247" y="175.68" style="fill: #0000ff; stroke: #0000ff"/>
    </g>
    <g clip-path="url(#p2b56a30484)">
     <use xlink:href="#C0_0_e0848ca64e" x="430.472727" y="175.68" style="fill: #0000ff; stroke: #0000ff"/>
    </g>
    <g clip-path="url(#p2b56a30484)">
     <use xlink:href="#C0_0_e0848ca64e" x="488.446753" y="175.68" style="fill: #0000ff; stroke: #0000ff"/>
    </g>
    <g clip-path="url(#p2b56a30484)">
     <use xlink:href="#C0_0_e0848ca64e" x="275.875325" y="194.88" style="fill: #008000; stroke: #008000"/>
    </g>
    <g clip-path="url(#p2b56a30484)">
     <use xlink:href="#C0_0_e0848ca64e" x="121.277922" y="194.88" style="fill: #0000ff; stroke: #0000ff"/>
    </g>
    <g clip-path="url(#p2b56a30484)">
     <use xlink:href="#C0_0_e0848ca64e" x="430.472727" y="194.88" style="fill: #008000; stroke: #008000"/>
    </g>
    <g clip-path="url(#p2b56a30484)">
     <use xlink:href="#C0_0_e0848ca64e" x="198.576623" y="194.88" style="fill: #008000; stroke: #008000"/>
    </g>
    <g clip-path="url(#p2b56a30484)">
     <use xlink:href="#C0_0_e0848ca64e" x="353.174026" y="194.88" style="fill: #008000; stroke: #008000"/>
    </g>
    <g clip-path="url(#p2b56a30484)">
     <use xlink:href="#C0_0_e0848ca64e" x="449.797403" y="214.08" style="fill: #008000; stroke: #008000"/>
    </g>
    <g clip-path="url(#p2b56a30484)">
     <use xlink:href="#C0_0_e0848ca64e" x="121.277922" y="214.08" style="fill: #0000ff; stroke: #0000ff"/>
    </g>
    <g clip-path="url(#p2b56a30484)">
     <use xlink:href="#C0_0_e0848ca64e" x="295.2" y="214.08" style="fill: #008000; stroke: #008000"/>
    </g>
    <g clip-path="url(#p2b56a30484)">
     <use xlink:href="#C0_0_e0848ca64e" x="217.901299" y="214.08" style="fill: #008000; stroke: #008000"/>
    </g>
    <g clip-path="url(#p2b56a30484)">
     <use xlink:href="#C0_0_e0848ca64e" x="372.498701" y="214.08" style="fill: #008000; stroke: #008000"/>
    </g>
    <g clip-path="url(#p2b56a30484)">
     <use xlink:href="#C0_0_e0848ca64e" x="237.225974" y="233.28" style="fill: #008000; stroke: #008000"/>
    </g>
    <g clip-path="url(#p2b56a30484)">
     <use xlink:href="#C0_0_e0848ca64e" x="469.122078" y="233.28" style="fill: #008000; stroke: #008000"/>
    </g>
    <g clip-path="url(#p2b56a30484)">
     <use xlink:href="#C0_0_e0848ca64e" x="391.823377" y="233.28" style="fill: #008000; stroke: #008000"/>
    </g>
    <g clip-path="url(#p2b56a30484)">
     <use xlink:href="#C0_0_e0848ca64e" x="121.277922" y="233.28" style="fill: #0000ff; stroke: #0000ff"/>
    </g>
    <g clip-path="url(#p2b56a30484)">
     <use xlink:href="#C0_0_e0848ca64e" x="314.524675" y="233.28" style="fill: #008000; stroke: #008000"/>
    </g>
    <g clip-path="url(#p2b56a30484)">
     <use xlink:href="#C0_0_e0848ca64e" x="333.849351" y="252.48" style="fill: #008000; stroke: #008000"/>
    </g>
    <g clip-path="url(#p2b56a30484)">
     <use xlink:href="#C0_0_e0848ca64e" x="121.277922" y="252.48" style="fill: #0000ff; stroke: #0000ff"/>
    </g>
    <g clip-path="url(#p2b56a30484)">
     <use xlink:href="#C0_0_e0848ca64e" x="411.148052" y="252.48" style="fill: #008000; stroke: #008000"/>
    </g>
    <g clip-path="url(#p2b56a30484)">
     <use xlink:href="#C0_0_e0848ca64e" x="488.446753" y="252.48" style="fill: #008000; stroke: #008000"/>
    </g>
    <g clip-path="url(#p2b56a30484)">
     <use xlink:href="#C0_0_e0848ca64e" x="256.550649" y="252.48" style="fill: #008000; stroke: #008000"/>
    </g>
    <g clip-path="url(#p2b56a30484)">
     <use xlink:href="#C0_0_e0848ca64e" x="391.823377" y="271.68" style="fill: #add8e6; stroke: #add8e6"/>
    </g>
    <g clip-path="url(#p2b56a30484)">
     <use xlink:href="#C0_0_e0848ca64e" x="488.446753" y="271.68" style="fill: #ff0000; stroke: #ff0000"/>
    </g>
    <g clip-path="url(#p2b56a30484)">
     <use xlink:href="#C0_0_e0848ca64e" x="198.576623" y="271.68" style="fill: #008000; stroke: #008000"/>
    </g>
    <g clip-path="url(#p2b56a30484)">
     <use xlink:href="#C0_0_e0848ca64e" x="295.2" y="271.68" style="fill: #ffc0cb; stroke: #ffc0cb"/>
    </g>
    <g clip-path="url(#p2b56a30484)">
     <use xlink:href="#C0_0_e0848ca64e" x="140.602597" y="271.68" style="fill: #0000ff; stroke: #0000ff"/>
    </g>
    <g clip-path="url(#p2b56a30484)">
     <use xlink:href="#C0_0_e0848ca64e" x="275.875325" y="290.88" style="fill: #ffc0cb; stroke: #ffc0cb"/>
    </g>
    <g clip-path="url(#p2b56a30484)">
     <use xlink:href="#C0_0_e0848ca64e" x="469.122078" y="290.88" style="fill: #ff0000; stroke: #ff0000"/>
    </g>
    <g clip-path="url(#p2b56a30484)">
     <use xlink:href="#C0_0_e0848ca64e" x="217.901299" y="290.88" style="fill: #008000; stroke: #008000"/>
    </g>
    <g clip-path="url(#p2b56a30484)">
     <use xlink:href="#C0_0_e0848ca64e" x="411.148052" y="290.88" style="fill: #add8e6; stroke: #add8e6"/>
    </g>
    <g clip-path="url(#p2b56a30484)">
     <use xlink:href="#C0_0_e0848ca64e" x="140.602597" y="290.88" style="fill: #0000ff; stroke: #0000ff"/>
    </g>
    <g clip-path="url(#p2b56a30484)">
     <use xlink:href="#C0_0_e0848ca64e" x="333.849351" y="310.08" style="fill: #ffc0cb; stroke: #ffc0cb"/>
    </g>
    <g clip-path="url(#p2b56a30484)">
     <use xlink:href="#C0_0_e0848ca64e" x="237.225974" y="310.08" style="fill: #008000; stroke: #008000"/>
    </g>
    <g clip-path="url(#p2b56a30484)">
     <use xlink:href="#C0_0_e0848ca64e" x="449.797403" y="310.08" style="fill: #ff0000; stroke: #ff0000"/>
    </g>
    <g clip-path="url(#p2b56a30484)">
     <use xlink:href="#C0_0_e0848ca64e" x="140.602597" y="310.08" style="fill: #0000ff; stroke: #0000ff"/>
    </g>
    <g clip-path="url(#p2b56a30484)">
     <use xlink:href="#C0_0_e0848ca64e" x="353.174026" y="310.08" style="fill: #add8e6; stroke: #add8e6"/>
    </g>
    <g clip-path="url(#p2b56a30484)">
     <use xlink:href="#C0_0_e0848ca64e" x="314.524675" y="329.28" style="fill: #ffc0cb; stroke: #ffc0cb"/>
    </g>
    <g clip-path="url(#p2b56a30484)">
     <use xlink:href="#C0_0_e0848ca64e" x="430.472727" y="329.28" style="fill: #ff0000; stroke: #ff0000"/>
    </g>
    <g clip-path="url(#p2b56a30484)">
     <use xlink:href="#C0_0_e0848ca64e" x="140.602597" y="329.28" style="fill: #0000ff; stroke: #0000ff"/>
    </g>
    <g clip-path="url(#p2b56a30484)">
     <use xlink:href="#C0_0_e0848ca64e" x="372.498701" y="329.28" style="fill: #add8e6; stroke: #add8e6"/>
    </g>
    <g clip-path="url(#p2b56a30484)">
     <use xlink:href="#C0_0_e0848ca64e" x="256.550649" y="329.28" style="fill: #008000; stroke: #008000"/>
    </g>
    <g clip-path="url(#p2b56a30484)">
     <use xlink:href="#C0_0_e0848ca64e" x="449.797403" y="348.48" style="fill: #ffc0cb; stroke: #ffc0cb"/>
    </g>
    <g clip-path="url(#p2b56a30484)">
     <use xlink:href="#C0_0_e0848ca64e" x="314.524675" y="348.48" style="fill: #add8e6; stroke: #add8e6"/>
    </g>
    <g clip-path="url(#p2b56a30484)">
     <use xlink:href="#C0_0_e0848ca64e" x="411.148052" y="348.48" style="fill: #ff0000; stroke: #ff0000"/>
    </g>
    <g clip-path="url(#p2b56a30484)">
     <use xlink:href="#C0_0_e0848ca64e" x="159.927273" y="348.48" style="fill: #0000ff; stroke: #0000ff"/>
    </g>
    <g clip-path="url(#p2b56a30484)">
     <use xlink:href="#C0_0_e0848ca64e" x="198.576623" y="348.48" style="fill: #008000; stroke: #008000"/>
    </g>
    <g clip-path="url(#p2b56a30484)">
     <use xlink:href="#C0_0_e0848ca64e" x="333.849351" y="367.68" style="fill: #add8e6; stroke: #add8e6"/>
    </g>
    <g clip-path="url(#p2b56a30484)">
     <use xlink:href="#C0_0_e0848ca64e" x="391.823377" y="367.68" style="fill: #ff0000; stroke: #ff0000"/>
    </g>
    <g clip-path="url(#p2b56a30484)">
     <use xlink:href="#C0_0_e0848ca64e" x="430.472727" y="367.68" style="fill: #ffc0cb; stroke: #ffc0cb"/>
    </g>
    <g clip-path="url(#p2b56a30484)">
     <use xlink:href="#C0_0_e0848ca64e" x="159.927273" y="367.68" style="fill: #0000ff; stroke: #0000ff"/>
    </g>
    <g clip-path="url(#p2b56a30484)">
     <use xlink:href="#C0_0_e0848ca64e" x="217.901299" y="367.68" style="fill: #008000; stroke: #008000"/>
    </g>
    <g clip-path="url(#p2b56a30484)">
     <use xlink:href="#C0_0_e0848ca64e" x="275.875325" y="386.88" style="fill: #add8e6; stroke: #add8e6"/>
    </g>
    <g clip-path="url(#p2b56a30484)">
     <use xlink:href="#C0_0_e0848ca64e" x="237.225974" y="386.88" style="fill: #008000; stroke: #008000"/>
    </g>
    <g clip-path="url(#p2b56a30484)">
     <use xlink:href="#C0_0_e0848ca64e" x="488.446753" y="386.88" style="fill: #ffc0cb; stroke: #ffc0cb"/>
    </g>
    <g clip-path="url(#p2b56a30484)">
     <use xlink:href="#C0_0_e0848ca64e" x="159.927273" y="386.88" style="fill: #0000ff; stroke: #0000ff"/>
    </g>
    <g clip-path="url(#p2b56a30484)">
     <use xlink:href="#C0_0_e0848ca64e" x="372.498701" y="386.88" style="fill: #ff0000; stroke: #ff0000"/>
    </g>
    <g clip-path="url(#p2b56a30484)">
     <use xlink:href="#C0_0_e0848ca64e" x="469.122078" y="406.08" style="fill: #ffc0cb; stroke: #ffc0cb"/>
    </g>
    <g clip-path="url(#p2b56a30484)">
     <use xlink:href="#C0_0_e0848ca64e" x="159.927273" y="406.08" style="fill: #0000ff; stroke: #0000ff"/>
    </g>
    <g clip-path="url(#p2b56a30484)">
     <use xlink:href="#C0_0_e0848ca64e" x="295.2" y="406.08" style="fill: #add8e6; stroke: #add8e6"/>
    </g>
    <g clip-path="url(#p2b56a30484)">
     <use xlink:href="#C0_0_e0848ca64e" x="353.174026" y="406.08" style="fill: #ff0000; stroke: #ff0000"/>
    </g>
    <g clip-path="url(#p2b56a30484)">
     <use xlink:href="#C0_0_e0848ca64e" x="256.550649" y="406.08" style="fill: #008000; stroke: #008000"/>
    </g>
    <g clip-path="url(#p2b56a30484)">
     <use xlink:href="#C0_0_e0848ca64e" x="333.849351" y="425.28" style="fill: #ff0000; stroke: #ff0000"/>
    </g>
    <g clip-path="url(#p2b56a30484)">
     <use xlink:href="#C0_0_e0848ca64e" x="469.122078" y="425.28" style="fill: #add8e6; stroke: #add8e6"/>
    </g>
    <g clip-path="url(#p2b56a30484)">
     <use xlink:href="#C0_0_e0848ca64e" x="179.251948" y="425.28" style="fill: #0000ff; stroke: #0000ff"/>
    </g>
    <g clip-path="url(#p2b56a30484)">
     <use xlink:href="#C0_0_e0848ca64e" x="198.576623" y="425.28" style="fill: #008000; stroke: #008000"/>
    </g>
    <g clip-path="url(#p2b56a30484)">
     <use xlink:href="#C0_0_e0848ca64e" x="372.498701" y="425.28" style="fill: #ffc0cb; stroke: #ffc0cb"/>
    </g>
    <g clip-path="url(#p2b56a30484)">
     <use xlink:href="#C0_0_e0848ca64e" x="314.524675" y="444.48" style="fill: #ff0000; stroke: #ff0000"/>
    </g>
    <g clip-path="url(#p2b56a30484)">
     <use xlink:href="#C0_0_e0848ca64e" x="179.251948" y="444.48" style="fill: #0000ff; stroke: #0000ff"/>
    </g>
    <g clip-path="url(#p2b56a30484)">
     <use xlink:href="#C0_0_e0848ca64e" x="488.446753" y="444.48" style="fill: #add8e6; stroke: #add8e6"/>
    </g>
    <g clip-path="url(#p2b56a30484)">
     <use xlink:href="#C0_0_e0848ca64e" x="217.901299" y="444.48" style="fill: #008000; stroke: #008000"/>
    </g>
    <g clip-path="url(#p2b56a30484)">
     <use xlink:href="#C0_0_e0848ca64e" x="353.174026" y="444.48" style="fill: #ffc0cb; stroke: #ffc0cb"/>
    </g>
    <g clip-path="url(#p2b56a30484)">
     <use xlink:href="#C0_0_e0848ca64e" x="237.225974" y="463.68" style="fill: #008000; stroke: #008000"/>
    </g>
    <g clip-path="url(#p2b56a30484)">
     <use xlink:href="#C0_0_e0848ca64e" x="411.148052" y="463.68" style="fill: #ffc0cb; stroke: #ffc0cb"/>
    </g>
    <g clip-path="url(#p2b56a30484)">
     <use xlink:href="#C0_0_e0848ca64e" x="179.251948" y="463.68" style="fill: #0000ff; stroke: #0000ff"/>
    </g>
    <g clip-path="url(#p2b56a30484)">
     <use xlink:href="#C0_0_e0848ca64e" x="430.472727" y="463.68" style="fill: #add8e6; stroke: #add8e6"/>
    </g>
    <g clip-path="url(#p2b56a30484)">
     <use xlink:href="#C0_0_e0848ca64e" x="295.2" y="463.68" style="fill: #ff0000; stroke: #ff0000"/>
    </g>
    <g clip-path="url(#p2b56a30484)">
     <use xlink:href="#C0_0_e0848ca64e" x="275.875325" y="482.88" style="fill: #ff0000; stroke: #ff0000"/>
    </g>
    <g clip-path="url(#p2b56a30484)">
     <use xlink:href="#C0_0_e0848ca64e" x="391.823377" y="482.88" style="fill: #ffc0cb; stroke: #ffc0cb"/>
    </g>
    <g clip-path="url(#p2b56a30484)">
     <use xlink:href="#C0_0_e0848ca64e" x="449.797403" y="482.88" style="fill: #add8e6; stroke: #add8e6"/>
    </g>
    <g clip-path="url(#p2b56a30484)">
     <use xlink:href="#C0_0_e0848ca64e" x="179.251948" y="482.88" style="fill: #0000ff; stroke: #0000ff"/>
    </g>
    <g clip-path="url(#p2b56a30484)">
     <use xlink:href="#C0_0_e0848ca64e" x="256.550649" y="482.88" style="fill: #008000; stroke: #008000"/>
    </g>
   </g>
   <g id="matplotlib.axis_1">
    <g id="xtick_1">
     <g id="line2d_1">
      <defs>
       <path id="m9330e8fed6" d="M 0 0 
L 0 3.5 
" style="stroke: #000000; stroke-width: 0.8"/>
      </defs>
      <g>
       <use xlink:href="#m9330e8fed6" x="101.953247" y="512.64" style="stroke: #000000; stroke-width: 0.8"/>
      </g>
     </g>
     <g id="text_1">
      <!-- 0 -->
      <g transform="translate(99.408247 525.71875) scale(0.08 -0.08)">
       <defs>
        <path id="DejaVuSans-30" d="M 2034 4250 
Q 1547 4250 1301 3770 
Q 1056 3291 1056 2328 
Q 1056 1369 1301 889 
Q 1547 409 2034 409 
Q 2525 409 2770 889 
Q 3016 1369 3016 2328 
Q 3016 3291 2770 3770 
Q 2525 4250 2034 4250 
z
M 2034 4750 
Q 2819 4750 3233 4129 
Q 3647 3509 3647 2328 
Q 3647 1150 3233 529 
Q 2819 -91 2034 -91 
Q 1250 -91 836 529 
Q 422 1150 422 2328 
Q 422 3509 836 4129 
Q 1250 4750 2034 4750 
z
" transform="scale(0.015625)"/>
       </defs>
       <use xlink:href="#DejaVuSans-30"/>
      </g>
     </g>
    </g>
    <g id="xtick_2">
     <g id="line2d_2">
      <g>
       <use xlink:href="#m9330e8fed6" x="198.576623" y="512.64" style="stroke: #000000; stroke-width: 0.8"/>
      </g>
     </g>
     <g id="text_2">
      <!-- 5 -->
      <g transform="translate(196.031623 525.71875) scale(0.08 -0.08)">
       <defs>
        <path id="DejaVuSans-35" d="M 691 4666 
L 3169 4666 
L 3169 4134 
L 1269 4134 
L 1269 2991 
Q 1406 3038 1543 3061 
Q 1681 3084 1819 3084 
Q 2600 3084 3056 2656 
Q 3513 2228 3513 1497 
Q 3513 744 3044 326 
Q 2575 -91 1722 -91 
Q 1428 -91 1123 -41 
Q 819 9 494 109 
L 494 744 
Q 775 591 1075 516 
Q 1375 441 1709 441 
Q 2250 441 2565 725 
Q 2881 1009 2881 1497 
Q 2881 1984 2565 2268 
Q 2250 2553 1709 2553 
Q 1456 2553 1204 2497 
Q 953 2441 691 2322 
L 691 4666 
z
" transform="scale(0.015625)"/>
       </defs>
       <use xlink:href="#DejaVuSans-35"/>
      </g>
     </g>
    </g>
    <g id="xtick_3">
     <g id="line2d_3">
      <g>
       <use xlink:href="#m9330e8fed6" x="295.2" y="512.64" style="stroke: #000000; stroke-width: 0.8"/>
      </g>
     </g>
     <g id="text_3">
      <!-- 10 -->
      <g transform="translate(290.11 525.71875) scale(0.08 -0.08)">
       <defs>
        <path id="DejaVuSans-31" d="M 794 531 
L 1825 531 
L 1825 4091 
L 703 3866 
L 703 4441 
L 1819 4666 
L 2450 4666 
L 2450 531 
L 3481 531 
L 3481 0 
L 794 0 
L 794 531 
z
" transform="scale(0.015625)"/>
       </defs>
       <use xlink:href="#DejaVuSans-31"/>
       <use xlink:href="#DejaVuSans-30" x="63.623047"/>
      </g>
     </g>
    </g>
    <g id="xtick_4">
     <g id="line2d_4">
      <g>
       <use xlink:href="#m9330e8fed6" x="391.823377" y="512.64" style="stroke: #000000; stroke-width: 0.8"/>
      </g>
     </g>
     <g id="text_4">
      <!-- 15 -->
      <g transform="translate(386.733377 525.71875) scale(0.08 -0.08)">
       <use xlink:href="#DejaVuSans-31"/>
       <use xlink:href="#DejaVuSans-35" x="63.623047"/>
      </g>
     </g>
    </g>
    <g id="xtick_5">
     <g id="line2d_5">
      <g>
       <use xlink:href="#m9330e8fed6" x="488.446753" y="512.64" style="stroke: #000000; stroke-width: 0.8"/>
      </g>
     </g>
     <g id="text_5">
      <!-- 20 -->
      <g transform="translate(483.356753 525.71875) scale(0.08 -0.08)">
       <defs>
        <path id="DejaVuSans-32" d="M 1228 531 
L 3431 531 
L 3431 0 
L 469 0 
L 469 531 
Q 828 903 1448 1529 
Q 2069 2156 2228 2338 
Q 2531 2678 2651 2914 
Q 2772 3150 2772 3378 
Q 2772 3750 2511 3984 
Q 2250 4219 1831 4219 
Q 1534 4219 1204 4116 
Q 875 4013 500 3803 
L 500 4441 
Q 881 4594 1212 4672 
Q 1544 4750 1819 4750 
Q 2544 4750 2975 4387 
Q 3406 4025 3406 3419 
Q 3406 3131 3298 2873 
Q 3191 2616 2906 2266 
Q 2828 2175 2409 1742 
Q 1991 1309 1228 531 
z
" transform="scale(0.015625)"/>
       </defs>
       <use xlink:href="#DejaVuSans-32"/>
       <use xlink:href="#DejaVuSans-30" x="63.623047"/>
      </g>
     </g>
    </g>
   </g>
   <g id="matplotlib.axis_2">
    <g id="ytick_1">
     <g id="line2d_6">
      <defs>
       <path id="m6acf1a9294" d="M 0 0 
L -3.5 0 
" style="stroke: #000000; stroke-width: 0.8"/>
      </defs>
      <g>
       <use xlink:href="#m6acf1a9294" x="72" y="98.88" style="stroke: #000000; stroke-width: 0.8"/>
      </g>
     </g>
     <g id="text_6">
      <!-- 01 -->
      <g transform="translate(54.82 101.919375) scale(0.08 -0.08)">
       <use xlink:href="#DejaVuSans-30"/>
       <use xlink:href="#DejaVuSans-31" x="63.623047"/>
      </g>
     </g>
    </g>
    <g id="ytick_2">
     <g id="line2d_7">
      <g>
       <use xlink:href="#m6acf1a9294" x="72" y="118.08" style="stroke: #000000; stroke-width: 0.8"/>
      </g>
     </g>
     <g id="text_7">
      <!-- 02 -->
      <g transform="translate(54.82 121.119375) scale(0.08 -0.08)">
       <use xlink:href="#DejaVuSans-30"/>
       <use xlink:href="#DejaVuSans-32" x="63.623047"/>
      </g>
     </g>
    </g>
    <g id="ytick_3">
     <g id="line2d_8">
      <g>
       <use xlink:href="#m6acf1a9294" x="72" y="137.28" style="stroke: #000000; stroke-width: 0.8"/>
      </g>
     </g>
     <g id="text_8">
      <!-- 03 -->
      <g transform="translate(54.82 140.319375) scale(0.08 -0.08)">
       <defs>
        <path id="DejaVuSans-33" d="M 2597 2516 
Q 3050 2419 3304 2112 
Q 3559 1806 3559 1356 
Q 3559 666 3084 287 
Q 2609 -91 1734 -91 
Q 1441 -91 1130 -33 
Q 819 25 488 141 
L 488 750 
Q 750 597 1062 519 
Q 1375 441 1716 441 
Q 2309 441 2620 675 
Q 2931 909 2931 1356 
Q 2931 1769 2642 2001 
Q 2353 2234 1838 2234 
L 1294 2234 
L 1294 2753 
L 1863 2753 
Q 2328 2753 2575 2939 
Q 2822 3125 2822 3475 
Q 2822 3834 2567 4026 
Q 2313 4219 1838 4219 
Q 1578 4219 1281 4162 
Q 984 4106 628 3988 
L 628 4550 
Q 988 4650 1302 4700 
Q 1616 4750 1894 4750 
Q 2613 4750 3031 4423 
Q 3450 4097 3450 3541 
Q 3450 3153 3228 2886 
Q 3006 2619 2597 2516 
z
" transform="scale(0.015625)"/>
       </defs>
       <use xlink:href="#DejaVuSans-30"/>
       <use xlink:href="#DejaVuSans-33" x="63.623047"/>
      </g>
     </g>
    </g>
    <g id="ytick_4">
     <g id="line2d_9">
      <g>
       <use xlink:href="#m6acf1a9294" x="72" y="156.48" style="stroke: #000000; stroke-width: 0.8"/>
      </g>
     </g>
     <g id="text_9">
      <!-- 04 -->
      <g transform="translate(54.82 159.519375) scale(0.08 -0.08)">
       <defs>
        <path id="DejaVuSans-34" d="M 2419 4116 
L 825 1625 
L 2419 1625 
L 2419 4116 
z
M 2253 4666 
L 3047 4666 
L 3047 1625 
L 3713 1625 
L 3713 1100 
L 3047 1100 
L 3047 0 
L 2419 0 
L 2419 1100 
L 313 1100 
L 313 1709 
L 2253 4666 
z
" transform="scale(0.015625)"/>
       </defs>
       <use xlink:href="#DejaVuSans-30"/>
       <use xlink:href="#DejaVuSans-34" x="63.623047"/>
      </g>
     </g>
    </g>
    <g id="ytick_5">
     <g id="line2d_10">
      <g>
       <use xlink:href="#m6acf1a9294" x="72" y="175.68" style="stroke: #000000; stroke-width: 0.8"/>
      </g>
     </g>
     <g id="text_10">
      <!-- 05 -->
      <g transform="translate(54.82 178.719375) scale(0.08 -0.08)">
       <use xlink:href="#DejaVuSans-30"/>
       <use xlink:href="#DejaVuSans-35" x="63.623047"/>
      </g>
     </g>
    </g>
    <g id="ytick_6">
     <g id="line2d_11">
      <g>
       <use xlink:href="#m6acf1a9294" x="72" y="194.88" style="stroke: #000000; stroke-width: 0.8"/>
      </g>
     </g>
     <g id="text_11">
      <!-- 06 -->
      <g transform="translate(54.82 197.919375) scale(0.08 -0.08)">
       <defs>
        <path id="DejaVuSans-36" d="M 2113 2584 
Q 1688 2584 1439 2293 
Q 1191 2003 1191 1497 
Q 1191 994 1439 701 
Q 1688 409 2113 409 
Q 2538 409 2786 701 
Q 3034 994 3034 1497 
Q 3034 2003 2786 2293 
Q 2538 2584 2113 2584 
z
M 3366 4563 
L 3366 3988 
Q 3128 4100 2886 4159 
Q 2644 4219 2406 4219 
Q 1781 4219 1451 3797 
Q 1122 3375 1075 2522 
Q 1259 2794 1537 2939 
Q 1816 3084 2150 3084 
Q 2853 3084 3261 2657 
Q 3669 2231 3669 1497 
Q 3669 778 3244 343 
Q 2819 -91 2113 -91 
Q 1303 -91 875 529 
Q 447 1150 447 2328 
Q 447 3434 972 4092 
Q 1497 4750 2381 4750 
Q 2619 4750 2861 4703 
Q 3103 4656 3366 4563 
z
" transform="scale(0.015625)"/>
       </defs>
       <use xlink:href="#DejaVuSans-30"/>
       <use xlink:href="#DejaVuSans-36" x="63.623047"/>
      </g>
     </g>
    </g>
    <g id="ytick_7">
     <g id="line2d_12">
      <g>
       <use xlink:href="#m6acf1a9294" x="72" y="214.08" style="stroke: #000000; stroke-width: 0.8"/>
      </g>
     </g>
     <g id="text_12">
      <!-- 07 -->
      <g transform="translate(54.82 217.119375) scale(0.08 -0.08)">
       <defs>
        <path id="DejaVuSans-37" d="M 525 4666 
L 3525 4666 
L 3525 4397 
L 1831 0 
L 1172 0 
L 2766 4134 
L 525 4134 
L 525 4666 
z
" transform="scale(0.015625)"/>
       </defs>
       <use xlink:href="#DejaVuSans-30"/>
       <use xlink:href="#DejaVuSans-37" x="63.623047"/>
      </g>
     </g>
    </g>
    <g id="ytick_8">
     <g id="line2d_13">
      <g>
       <use xlink:href="#m6acf1a9294" x="72" y="233.28" style="stroke: #000000; stroke-width: 0.8"/>
      </g>
     </g>
     <g id="text_13">
      <!-- 08 -->
      <g transform="translate(54.82 236.319375) scale(0.08 -0.08)">
       <defs>
        <path id="DejaVuSans-38" d="M 2034 2216 
Q 1584 2216 1326 1975 
Q 1069 1734 1069 1313 
Q 1069 891 1326 650 
Q 1584 409 2034 409 
Q 2484 409 2743 651 
Q 3003 894 3003 1313 
Q 3003 1734 2745 1975 
Q 2488 2216 2034 2216 
z
M 1403 2484 
Q 997 2584 770 2862 
Q 544 3141 544 3541 
Q 544 4100 942 4425 
Q 1341 4750 2034 4750 
Q 2731 4750 3128 4425 
Q 3525 4100 3525 3541 
Q 3525 3141 3298 2862 
Q 3072 2584 2669 2484 
Q 3125 2378 3379 2068 
Q 3634 1759 3634 1313 
Q 3634 634 3220 271 
Q 2806 -91 2034 -91 
Q 1263 -91 848 271 
Q 434 634 434 1313 
Q 434 1759 690 2068 
Q 947 2378 1403 2484 
z
M 1172 3481 
Q 1172 3119 1398 2916 
Q 1625 2713 2034 2713 
Q 2441 2713 2670 2916 
Q 2900 3119 2900 3481 
Q 2900 3844 2670 4047 
Q 2441 4250 2034 4250 
Q 1625 4250 1398 4047 
Q 1172 3844 1172 3481 
z
" transform="scale(0.015625)"/>
       </defs>
       <use xlink:href="#DejaVuSans-30"/>
       <use xlink:href="#DejaVuSans-38" x="63.623047"/>
      </g>
     </g>
    </g>
    <g id="ytick_9">
     <g id="line2d_14">
      <g>
       <use xlink:href="#m6acf1a9294" x="72" y="252.48" style="stroke: #000000; stroke-width: 0.8"/>
      </g>
     </g>
     <g id="text_14">
      <!-- 09 -->
      <g transform="translate(54.82 255.519375) scale(0.08 -0.08)">
       <defs>
        <path id="DejaVuSans-39" d="M 703 97 
L 703 672 
Q 941 559 1184 500 
Q 1428 441 1663 441 
Q 2288 441 2617 861 
Q 2947 1281 2994 2138 
Q 2813 1869 2534 1725 
Q 2256 1581 1919 1581 
Q 1219 1581 811 2004 
Q 403 2428 403 3163 
Q 403 3881 828 4315 
Q 1253 4750 1959 4750 
Q 2769 4750 3195 4129 
Q 3622 3509 3622 2328 
Q 3622 1225 3098 567 
Q 2575 -91 1691 -91 
Q 1453 -91 1209 -44 
Q 966 3 703 97 
z
M 1959 2075 
Q 2384 2075 2632 2365 
Q 2881 2656 2881 3163 
Q 2881 3666 2632 3958 
Q 2384 4250 1959 4250 
Q 1534 4250 1286 3958 
Q 1038 3666 1038 3163 
Q 1038 2656 1286 2365 
Q 1534 2075 1959 2075 
z
" transform="scale(0.015625)"/>
       </defs>
       <use xlink:href="#DejaVuSans-30"/>
       <use xlink:href="#DejaVuSans-39" x="63.623047"/>
      </g>
     </g>
    </g>
    <g id="ytick_10">
     <g id="line2d_15">
      <g>
       <use xlink:href="#m6acf1a9294" x="72" y="271.68" style="stroke: #000000; stroke-width: 0.8"/>
      </g>
     </g>
     <g id="text_15">
      <!-- 10 -->
      <g transform="translate(54.82 274.719375) scale(0.08 -0.08)">
       <use xlink:href="#DejaVuSans-31"/>
       <use xlink:href="#DejaVuSans-30" x="63.623047"/>
      </g>
     </g>
    </g>
    <g id="ytick_11">
     <g id="line2d_16">
      <g>
       <use xlink:href="#m6acf1a9294" x="72" y="290.88" style="stroke: #000000; stroke-width: 0.8"/>
      </g>
     </g>
     <g id="text_16">
      <!-- 11 -->
      <g transform="translate(54.82 293.919375) scale(0.08 -0.08)">
       <use xlink:href="#DejaVuSans-31"/>
       <use xlink:href="#DejaVuSans-31" x="63.623047"/>
      </g>
     </g>
    </g>
    <g id="ytick_12">
     <g id="line2d_17">
      <g>
       <use xlink:href="#m6acf1a9294" x="72" y="310.08" style="stroke: #000000; stroke-width: 0.8"/>
      </g>
     </g>
     <g id="text_17">
      <!-- 12 -->
      <g transform="translate(54.82 313.119375) scale(0.08 -0.08)">
       <use xlink:href="#DejaVuSans-31"/>
       <use xlink:href="#DejaVuSans-32" x="63.623047"/>
      </g>
     </g>
    </g>
    <g id="ytick_13">
     <g id="line2d_18">
      <g>
       <use xlink:href="#m6acf1a9294" x="72" y="329.28" style="stroke: #000000; stroke-width: 0.8"/>
      </g>
     </g>
     <g id="text_18">
      <!-- 13 -->
      <g transform="translate(54.82 332.319375) scale(0.08 -0.08)">
       <use xlink:href="#DejaVuSans-31"/>
       <use xlink:href="#DejaVuSans-33" x="63.623047"/>
      </g>
     </g>
    </g>
    <g id="ytick_14">
     <g id="line2d_19">
      <g>
       <use xlink:href="#m6acf1a9294" x="72" y="348.48" style="stroke: #000000; stroke-width: 0.8"/>
      </g>
     </g>
     <g id="text_19">
      <!-- 14 -->
      <g transform="translate(54.82 351.519375) scale(0.08 -0.08)">
       <use xlink:href="#DejaVuSans-31"/>
       <use xlink:href="#DejaVuSans-34" x="63.623047"/>
      </g>
     </g>
    </g>
    <g id="ytick_15">
     <g id="line2d_20">
      <g>
       <use xlink:href="#m6acf1a9294" x="72" y="367.68" style="stroke: #000000; stroke-width: 0.8"/>
      </g>
     </g>
     <g id="text_20">
      <!-- 15 -->
      <g transform="translate(54.82 370.719375) scale(0.08 -0.08)">
       <use xlink:href="#DejaVuSans-31"/>
       <use xlink:href="#DejaVuSans-35" x="63.623047"/>
      </g>
     </g>
    </g>
    <g id="ytick_16">
     <g id="line2d_21">
      <g>
       <use xlink:href="#m6acf1a9294" x="72" y="386.88" style="stroke: #000000; stroke-width: 0.8"/>
      </g>
     </g>
     <g id="text_21">
      <!-- 16 -->
      <g transform="translate(54.82 389.919375) scale(0.08 -0.08)">
       <use xlink:href="#DejaVuSans-31"/>
       <use xlink:href="#DejaVuSans-36" x="63.623047"/>
      </g>
     </g>
    </g>
    <g id="ytick_17">
     <g id="line2d_22">
      <g>
       <use xlink:href="#m6acf1a9294" x="72" y="406.08" style="stroke: #000000; stroke-width: 0.8"/>
      </g>
     </g>
     <g id="text_22">
      <!-- 17 -->
      <g transform="translate(54.82 409.119375) scale(0.08 -0.08)">
       <use xlink:href="#DejaVuSans-31"/>
       <use xlink:href="#DejaVuSans-37" x="63.623047"/>
      </g>
     </g>
    </g>
    <g id="ytick_18">
     <g id="line2d_23">
      <g>
       <use xlink:href="#m6acf1a9294" x="72" y="425.28" style="stroke: #000000; stroke-width: 0.8"/>
      </g>
     </g>
     <g id="text_23">
      <!-- 18 -->
      <g transform="translate(54.82 428.319375) scale(0.08 -0.08)">
       <use xlink:href="#DejaVuSans-31"/>
       <use xlink:href="#DejaVuSans-38" x="63.623047"/>
      </g>
     </g>
    </g>
    <g id="ytick_19">
     <g id="line2d_24">
      <g>
       <use xlink:href="#m6acf1a9294" x="72" y="444.48" style="stroke: #000000; stroke-width: 0.8"/>
      </g>
     </g>
     <g id="text_24">
      <!-- 19 -->
      <g transform="translate(54.82 447.519375) scale(0.08 -0.08)">
       <use xlink:href="#DejaVuSans-31"/>
       <use xlink:href="#DejaVuSans-39" x="63.623047"/>
      </g>
     </g>
    </g>
    <g id="ytick_20">
     <g id="line2d_25">
      <g>
       <use xlink:href="#m6acf1a9294" x="72" y="463.68" style="stroke: #000000; stroke-width: 0.8"/>
      </g>
     </g>
     <g id="text_25">
      <!-- 20 -->
      <g transform="translate(54.82 466.719375) scale(0.08 -0.08)">
       <use xlink:href="#DejaVuSans-32"/>
       <use xlink:href="#DejaVuSans-30" x="63.623047"/>
      </g>
     </g>
    </g>
    <g id="ytick_21">
     <g id="line2d_26">
      <g>
       <use xlink:href="#m6acf1a9294" x="72" y="482.88" style="stroke: #000000; stroke-width: 0.8"/>
      </g>
     </g>
     <g id="text_26">
      <!-- 21 -->
      <g transform="translate(54.82 485.919375) scale(0.08 -0.08)">
       <use xlink:href="#DejaVuSans-32"/>
       <use xlink:href="#DejaVuSans-31" x="63.623047"/>
      </g>
     </g>
    </g>
   </g>
   <g id="line2d_27">
    <path d="M 92.290909 185.28 
L 498.109091 185.28 
" clip-path="url(#p2b56a30484)" style="fill: none; stroke: #000000; stroke-width: 0.5; stroke-linecap: square"/>
   </g>
   <g id="line2d_28">
    <path d="M 188.914286 89.28 
L 188.914286 492.48 
" clip-path="url(#p2b56a30484)" style="fill: none; stroke: #000000; stroke-width: 0.5; stroke-linecap: square"/>
   </g>
   <g id="line2d_29">
    <path d="M 92.290909 262.08 
L 498.109091 262.08 
" clip-path="url(#p2b56a30484)" style="fill: none; stroke: #000000; stroke-width: 0.5; stroke-linecap: square"/>
   </g>
   <g id="line2d_30">
    <path d="M 266.212987 89.28 
L 266.212987 492.48 
" clip-path="url(#p2b56a30484)" style="fill: none; stroke: #000000; stroke-width: 0.5; stroke-linecap: square"/>
   </g>
   <g id="line2d_31">
    <path d="M 92.290909 338.88 
L 498.109091 338.88 
" clip-path="url(#p2b56a30484)" style="fill: none; stroke: #000000; stroke-width: 0.5; stroke-linecap: square"/>
   </g>
   <g id="line2d_32">
    <path d="M 343.511688 89.28 
L 343.511688 492.48 
" clip-path="url(#p2b56a30484)" style="fill: none; stroke: #000000; stroke-width: 0.5; stroke-linecap: square"/>
   </g>
   <g id="line2d_33">
    <path d="M 92.290909 415.68 
L 498.109091 415.68 
" clip-path="url(#p2b56a30484)" style="fill: none; stroke: #000000; stroke-width: 0.5; stroke-linecap: square"/>
   </g>
   <g id="line2d_34">
    <path d="M 420.81039 89.28 
L 420.81039 492.48 
" clip-path="url(#p2b56a30484)" style="fill: none; stroke: #000000; stroke-width: 0.5; stroke-linecap: square"/>
   </g>
   <g id="patch_3">
    <path d="M 72 512.64 
L 72 69.12 
" style="fill: none; stroke: #000000; stroke-width: 0.8; stroke-linejoin: miter; stroke-linecap: square"/>
   </g>
   <g id="patch_4">
    <path d="M 518.4 512.64 
L 518.4 69.12 
" style="fill: none; stroke: #000000; stroke-width: 0.8; stroke-linejoin: miter; stroke-linecap: square"/>
   </g>
   <g id="patch_5">
    <path d="M 72 512.64 
L 518.4 512.64 
" style="fill: none; stroke: #000000; stroke-width: 0.8; stroke-linejoin: miter; stroke-linecap: square"/>
   </g>
   <g id="patch_6">
    <path d="M 72 69.12 
L 518.4 69.12 
" style="fill: none; stroke: #000000; stroke-width: 0.8; stroke-linejoin: miter; stroke-linecap: square"/>
   </g>
   <g id="text_27">
    <!-- N=5 X=21 cards, Y=21 symbols -->
    <g transform="translate(198.165 63.12) scale(0.12 -0.12)">
     <defs>
      <path id="DejaVuSans-4e" d="M 628 4666 
L 1478 4666 
L 3547 763 
L 3547 4666 
L 4159 4666 
L 4159 0 
L 3309 0 
L 1241 3903 
L 1241 0 
L 628 0 
L 628 4666 
z
" transform="scale(0.015625)"/>
      <path id="DejaVuSans-3d" d="M 678 2906 
L 4684 2906 
L 4684 2381 
L 678 2381 
L 678 2906 
z
M 678 1631 
L 4684 1631 
L 4684 1100 
L 678 1100 
L 678 1631 
z
" transform="scale(0.015625)"/>
      <path id="DejaVuSans-20" transform="scale(0.015625)"/>
      <path id="DejaVuSans-58" d="M 403 4666 
L 1081 4666 
L 2241 2931 
L 3406 4666 
L 4084 4666 
L 2584 2425 
L 4184 0 
L 3506 0 
L 2194 1984 
L 872 0 
L 191 0 
L 1856 2491 
L 403 4666 
z
" transform="scale(0.015625)"/>
      <path id="DejaVuSans-63" d="M 3122 3366 
L 3122 2828 
Q 2878 2963 2633 3030 
Q 2388 3097 2138 3097 
Q 1578 3097 1268 2742 
Q 959 2388 959 1747 
Q 959 1106 1268 751 
Q 1578 397 2138 397 
Q 2388 397 2633 464 
Q 2878 531 3122 666 
L 3122 134 
Q 2881 22 2623 -34 
Q 2366 -91 2075 -91 
Q 1284 -91 818 406 
Q 353 903 353 1747 
Q 353 2603 823 3093 
Q 1294 3584 2113 3584 
Q 2378 3584 2631 3529 
Q 2884 3475 3122 3366 
z
" transform="scale(0.015625)"/>
      <path id="DejaVuSans-61" d="M 2194 1759 
Q 1497 1759 1228 1600 
Q 959 1441 959 1056 
Q 959 750 1161 570 
Q 1363 391 1709 391 
Q 2188 391 2477 730 
Q 2766 1069 2766 1631 
L 2766 1759 
L 2194 1759 
z
M 3341 1997 
L 3341 0 
L 2766 0 
L 2766 531 
Q 2569 213 2275 61 
Q 1981 -91 1556 -91 
Q 1019 -91 701 211 
Q 384 513 384 1019 
Q 384 1609 779 1909 
Q 1175 2209 1959 2209 
L 2766 2209 
L 2766 2266 
Q 2766 2663 2505 2880 
Q 2244 3097 1772 3097 
Q 1472 3097 1187 3025 
Q 903 2953 641 2809 
L 641 3341 
Q 956 3463 1253 3523 
Q 1550 3584 1831 3584 
Q 2591 3584 2966 3190 
Q 3341 2797 3341 1997 
z
" transform="scale(0.015625)"/>
      <path id="DejaVuSans-72" d="M 2631 2963 
Q 2534 3019 2420 3045 
Q 2306 3072 2169 3072 
Q 1681 3072 1420 2755 
Q 1159 2438 1159 1844 
L 1159 0 
L 581 0 
L 581 3500 
L 1159 3500 
L 1159 2956 
Q 1341 3275 1631 3429 
Q 1922 3584 2338 3584 
Q 2397 3584 2469 3576 
Q 2541 3569 2628 3553 
L 2631 2963 
z
" transform="scale(0.015625)"/>
      <path id="DejaVuSans-64" d="M 2906 2969 
L 2906 4863 
L 3481 4863 
L 3481 0 
L 2906 0 
L 2906 525 
Q 2725 213 2448 61 
Q 2172 -91 1784 -91 
Q 1150 -91 751 415 
Q 353 922 353 1747 
Q 353 2572 751 3078 
Q 1150 3584 1784 3584 
Q 2172 3584 2448 3432 
Q 2725 3281 2906 2969 
z
M 947 1747 
Q 947 1113 1208 752 
Q 1469 391 1925 391 
Q 2381 391 2643 752 
Q 2906 1113 2906 1747 
Q 2906 2381 2643 2742 
Q 2381 3103 1925 3103 
Q 1469 3103 1208 2742 
Q 947 2381 947 1747 
z
" transform="scale(0.015625)"/>
      <path id="DejaVuSans-73" d="M 2834 3397 
L 2834 2853 
Q 2591 2978 2328 3040 
Q 2066 3103 1784 3103 
Q 1356 3103 1142 2972 
Q 928 2841 928 2578 
Q 928 2378 1081 2264 
Q 1234 2150 1697 2047 
L 1894 2003 
Q 2506 1872 2764 1633 
Q 3022 1394 3022 966 
Q 3022 478 2636 193 
Q 2250 -91 1575 -91 
Q 1294 -91 989 -36 
Q 684 19 347 128 
L 347 722 
Q 666 556 975 473 
Q 1284 391 1588 391 
Q 1994 391 2212 530 
Q 2431 669 2431 922 
Q 2431 1156 2273 1281 
Q 2116 1406 1581 1522 
L 1381 1569 
Q 847 1681 609 1914 
Q 372 2147 372 2553 
Q 372 3047 722 3315 
Q 1072 3584 1716 3584 
Q 2034 3584 2315 3537 
Q 2597 3491 2834 3397 
z
" transform="scale(0.015625)"/>
      <path id="DejaVuSans-2c" d="M 750 794 
L 1409 794 
L 1409 256 
L 897 -744 
L 494 -744 
L 750 256 
L 750 794 
z
" transform="scale(0.015625)"/>
      <path id="DejaVuSans-59" d="M -13 4666 
L 666 4666 
L 1959 2747 
L 3244 4666 
L 3922 4666 
L 2272 2222 
L 2272 0 
L 1638 0 
L 1638 2222 
L -13 4666 
z
" transform="scale(0.015625)"/>
      <path id="DejaVuSans-79" d="M 2059 -325 
Q 1816 -950 1584 -1140 
Q 1353 -1331 966 -1331 
L 506 -1331 
L 506 -850 
L 844 -850 
Q 1081 -850 1212 -737 
Q 1344 -625 1503 -206 
L 1606 56 
L 191 3500 
L 800 3500 
L 1894 763 
L 2988 3500 
L 3597 3500 
L 2059 -325 
z
" transform="scale(0.015625)"/>
      <path id="DejaVuSans-6d" d="M 3328 2828 
Q 3544 3216 3844 3400 
Q 4144 3584 4550 3584 
Q 5097 3584 5394 3201 
Q 5691 2819 5691 2113 
L 5691 0 
L 5113 0 
L 5113 2094 
Q 5113 2597 4934 2840 
Q 4756 3084 4391 3084 
Q 3944 3084 3684 2787 
Q 3425 2491 3425 1978 
L 3425 0 
L 2847 0 
L 2847 2094 
Q 2847 2600 2669 2842 
Q 2491 3084 2119 3084 
Q 1678 3084 1418 2786 
Q 1159 2488 1159 1978 
L 1159 0 
L 581 0 
L 581 3500 
L 1159 3500 
L 1159 2956 
Q 1356 3278 1631 3431 
Q 1906 3584 2284 3584 
Q 2666 3584 2933 3390 
Q 3200 3197 3328 2828 
z
" transform="scale(0.015625)"/>
      <path id="DejaVuSans-62" d="M 3116 1747 
Q 3116 2381 2855 2742 
Q 2594 3103 2138 3103 
Q 1681 3103 1420 2742 
Q 1159 2381 1159 1747 
Q 1159 1113 1420 752 
Q 1681 391 2138 391 
Q 2594 391 2855 752 
Q 3116 1113 3116 1747 
z
M 1159 2969 
Q 1341 3281 1617 3432 
Q 1894 3584 2278 3584 
Q 2916 3584 3314 3078 
Q 3713 2572 3713 1747 
Q 3713 922 3314 415 
Q 2916 -91 2278 -91 
Q 1894 -91 1617 61 
Q 1341 213 1159 525 
L 1159 0 
L 581 0 
L 581 4863 
L 1159 4863 
L 1159 2969 
z
" transform="scale(0.015625)"/>
      <path id="DejaVuSans-6f" d="M 1959 3097 
Q 1497 3097 1228 2736 
Q 959 2375 959 1747 
Q 959 1119 1226 758 
Q 1494 397 1959 397 
Q 2419 397 2687 759 
Q 2956 1122 2956 1747 
Q 2956 2369 2687 2733 
Q 2419 3097 1959 3097 
z
M 1959 3584 
Q 2709 3584 3137 3096 
Q 3566 2609 3566 1747 
Q 3566 888 3137 398 
Q 2709 -91 1959 -91 
Q 1206 -91 779 398 
Q 353 888 353 1747 
Q 353 2609 779 3096 
Q 1206 3584 1959 3584 
z
" transform="scale(0.015625)"/>
      <path id="DejaVuSans-6c" d="M 603 4863 
L 1178 4863 
L 1178 0 
L 603 0 
L 603 4863 
z
" transform="scale(0.015625)"/>
     </defs>
     <use xlink:href="#DejaVuSans-4e"/>
     <use xlink:href="#DejaVuSans-3d" x="74.804688"/>
     <use xlink:href="#DejaVuSans-35" x="158.59375"/>
     <use xlink:href="#DejaVuSans-20" x="222.216797"/>
     <use xlink:href="#DejaVuSans-58" x="254.003906"/>
     <use xlink:href="#DejaVuSans-3d" x="322.509766"/>
     <use xlink:href="#DejaVuSans-32" x="406.298828"/>
     <use xlink:href="#DejaVuSans-31" x="469.921875"/>
     <use xlink:href="#DejaVuSans-20" x="533.544922"/>
     <use xlink:href="#DejaVuSans-63" x="565.332031"/>
     <use xlink:href="#DejaVuSans-61" x="620.3125"/>
     <use xlink:href="#DejaVuSans-72" x="681.591797"/>
     <use xlink:href="#DejaVuSans-64" x="720.955078"/>
     <use xlink:href="#DejaVuSans-73" x="784.431641"/>
     <use xlink:href="#DejaVuSans-2c" x="836.53125"/>
     <use xlink:href="#DejaVuSans-20" x="868.318359"/>
     <use xlink:href="#DejaVuSans-59" x="900.105469"/>
     <use xlink:href="#DejaVuSans-3d" x="961.189453"/>
     <use xlink:href="#DejaVuSans-32" x="1044.978516"/>
     <use xlink:href="#DejaVuSans-31" x="1108.601562"/>
     <use xlink:href="#DejaVuSans-20" x="1172.224609"/>
     <use xlink:href="#DejaVuSans-73" x="1204.011719"/>
     <use xlink:href="#DejaVuSans-79" x="1256.111328"/>
     <use xlink:href="#DejaVuSans-6d" x="1315.291016"/>
     <use xlink:href="#DejaVuSans-62" x="1412.703125"/>
     <use xlink:href="#DejaVuSans-6f" x="1476.179688"/>
     <use xlink:href="#DejaVuSans-6c" x="1537.361328"/>
     <use xlink:href="#DejaVuSans-73" x="1565.144531"/>
    </g>
   </g>
  </g>
 </g>
 <defs>
  <clipPath id="p2b56a30484">
   <rect x="72" y="69.12" width="446.4" height="443.52"/>
  </clipPath>
 </defs>
</svg>
