<?xml version="1.0" encoding="UTF-8" standalone="no"?>
<!DOCTYPE svg PUBLIC "-//W3C//DTD SVG 1.1//EN"
 "http://www.w3.org/Graphics/SVG/1.1/DTD/svg11.dtd">
<!-- Generated by graphviz version 7.0.4 (20221203.1631)
 -->
<!-- Pages: 1 -->
<svg width="440pt" height="260pt"
 viewBox="0.00 0.00 440.19 260.00" xmlns="http://www.w3.org/2000/svg" xmlns:xlink="http://www.w3.org/1999/xlink">
<g id="graph0" class="graph" transform="scale(1 1) rotate(0) translate(4 256)">
<polygon fill="white" stroke="none" points="-4,4 -4,-256 436.19,-256 436.19,4 -4,4"/>
<!-- v -->
<g id="node1" class="node">
<title>v</title>
<ellipse fill="none" stroke="black" cx="215.6" cy="-234" rx="27" ry="18"/>
<text text-anchor="middle" x="215.6" y="-230.3" font-family="Times,serif" font-size="14.00">v</text>
</g>
<!-- v1 -->
<g id="node2" class="node">
<title>v1</title>
<ellipse fill="none" stroke="black" cx="177.6" cy="-162" rx="27" ry="18"/>
<text text-anchor="middle" x="177.6" y="-158.3" font-family="Times,serif" font-size="14.00">v1</text>
</g>
<!-- v&#45;&gt;v1 -->
<g id="edge1" class="edge">
<title>v&#45;&gt;v1</title>
<path fill="none" stroke="black" d="M206.78,-216.76C202.32,-208.55 196.8,-198.37 191.76,-189.09"/>
<polygon fill="black" stroke="black" points="194.93,-187.6 187.09,-180.48 188.78,-190.94 194.93,-187.6"/>
</g>
<!-- v2 -->
<g id="node8" class="node">
<title>v2</title>
<ellipse fill="none" stroke="black" cx="254.6" cy="-162" rx="27" ry="18"/>
<text text-anchor="middle" x="254.6" y="-158.3" font-family="Times,serif" font-size="14.00">v2</text>
</g>
<!-- v&#45;&gt;v2 -->
<g id="edge8" class="edge">
<title>v&#45;&gt;v2</title>
<path fill="none" stroke="black" d="M224.64,-216.76C229.22,-208.55 234.89,-198.37 240.06,-189.09"/>
<polygon fill="black" stroke="black" points="243.05,-190.91 244.86,-180.47 236.94,-187.5 243.05,-190.91"/>
</g>
<!-- v11 -->
<g id="node3" class="node">
<title>v11</title>
<ellipse fill="none" stroke="black" cx="103.6" cy="-90" rx="27" ry="18"/>
<text text-anchor="middle" x="103.6" y="-86.3" font-family="Times,serif" font-size="14.00">v11</text>
</g>
<!-- v1&#45;&gt;v11 -->
<g id="edge2" class="edge">
<title>v1&#45;&gt;v11</title>
<path fill="none" stroke="black" d="M162.62,-146.83C152.36,-137.13 138.54,-124.06 126.86,-113"/>
<polygon fill="black" stroke="black" points="129.57,-110.75 119.9,-106.42 124.76,-115.84 129.57,-110.75"/>
</g>
<!-- v12 -->
<g id="node4" class="node">
<title>v12</title>
<ellipse fill="none" stroke="black" cx="177.6" cy="-90" rx="27" ry="18"/>
<text text-anchor="middle" x="177.6" y="-86.3" font-family="Times,serif" font-size="14.00">v12</text>
</g>
<!-- v1&#45;&gt;v12 -->
<g id="edge3" class="edge">
<title>v1&#45;&gt;v12</title>
<path fill="none" stroke="black" d="M177.6,-143.7C177.6,-136.41 177.6,-127.73 177.6,-119.54"/>
<polygon fill="black" stroke="black" points="181.1,-119.62 177.6,-109.62 174.1,-119.62 181.1,-119.62"/>
</g>
<!-- v111 -->
<g id="node5" class="node">
<title>v111</title>
<ellipse fill="none" stroke="black" cx="28.6" cy="-18" rx="28.7" ry="18"/>
<text text-anchor="middle" x="28.6" y="-14.3" font-family="Times,serif" font-size="14.00">v111</text>
</g>
<!-- v11&#45;&gt;v111 -->
<g id="edge4" class="edge">
<title>v11&#45;&gt;v111</title>
<path fill="none" stroke="black" d="M88.42,-74.83C78.02,-65.13 64.01,-52.06 52.17,-41"/>
<polygon fill="black" stroke="black" points="54.81,-38.68 45.12,-34.42 50.04,-43.8 54.81,-38.68"/>
</g>
<!-- v112 -->
<g id="node6" class="node">
<title>v112</title>
<ellipse fill="none" stroke="black" cx="103.6" cy="-18" rx="28.7" ry="18"/>
<text text-anchor="middle" x="103.6" y="-14.3" font-family="Times,serif" font-size="14.00">v112</text>
</g>
<!-- v11&#45;&gt;v112 -->
<g id="edge5" class="edge">
<title>v11&#45;&gt;v112</title>
<path fill="none" stroke="black" d="M103.6,-71.7C103.6,-64.41 103.6,-55.73 103.6,-47.54"/>
<polygon fill="black" stroke="black" points="107.1,-47.62 103.6,-37.62 100.1,-47.62 107.1,-47.62"/>
</g>
<!-- v12&#45;&gt;v112 -->
<g id="edge6" class="edge">
<title>v12&#45;&gt;v112</title>
<path fill="none" stroke="black" d="M162.62,-74.83C152.43,-65.19 138.72,-52.23 127.09,-41.22"/>
<polygon fill="black" stroke="black" points="129.83,-39 120.16,-34.67 125.02,-44.08 129.83,-39"/>
</g>
<!-- v113 -->
<g id="node7" class="node">
<title>v113</title>
<ellipse fill="none" stroke="black" cx="178.6" cy="-18" rx="28.7" ry="18"/>
<text text-anchor="middle" x="178.6" y="-14.3" font-family="Times,serif" font-size="14.00">v113</text>
</g>
<!-- v12&#45;&gt;v113 -->
<g id="edge7" class="edge">
<title>v12&#45;&gt;v113</title>
<path fill="none" stroke="black" d="M177.84,-71.7C177.95,-64.41 178.07,-55.73 178.19,-47.54"/>
<polygon fill="black" stroke="black" points="181.69,-47.67 178.33,-37.62 174.69,-47.57 181.69,-47.67"/>
</g>
<!-- v21 -->
<g id="node9" class="node">
<title>v21</title>
<ellipse fill="none" stroke="black" cx="254.6" cy="-90" rx="27" ry="18"/>
<text text-anchor="middle" x="254.6" y="-86.3" font-family="Times,serif" font-size="14.00">v21</text>
</g>
<!-- v2&#45;&gt;v21 -->
<g id="edge9" class="edge">
<title>v2&#45;&gt;v21</title>
<path fill="none" stroke="black" d="M254.6,-143.7C254.6,-136.41 254.6,-127.73 254.6,-119.54"/>
<polygon fill="black" stroke="black" points="258.1,-119.62 254.6,-109.62 251.1,-119.62 258.1,-119.62"/>
</g>
<!-- v22 -->
<g id="node10" class="node">
<title>v22</title>
<ellipse fill="none" stroke="black" cx="328.6" cy="-90" rx="27" ry="18"/>
<text text-anchor="middle" x="328.6" y="-86.3" font-family="Times,serif" font-size="14.00">v22</text>
</g>
<!-- v2&#45;&gt;v22 -->
<g id="edge10" class="edge">
<title>v2&#45;&gt;v22</title>
<path fill="none" stroke="black" d="M269.57,-146.83C279.84,-137.13 293.65,-124.06 305.34,-113"/>
<polygon fill="black" stroke="black" points="307.43,-115.84 312.29,-106.42 302.62,-110.75 307.43,-115.84"/>
</g>
<!-- v211 -->
<g id="node11" class="node">
<title>v211</title>
<ellipse fill="none" stroke="black" cx="253.6" cy="-18" rx="28.7" ry="18"/>
<text text-anchor="middle" x="253.6" y="-14.3" font-family="Times,serif" font-size="14.00">v211</text>
</g>
<!-- v21&#45;&gt;v211 -->
<g id="edge11" class="edge">
<title>v21&#45;&gt;v211</title>
<path fill="none" stroke="black" d="M254.35,-71.7C254.25,-64.41 254.12,-55.73 254.01,-47.54"/>
<polygon fill="black" stroke="black" points="257.51,-47.57 253.86,-37.62 250.51,-47.67 257.51,-47.57"/>
</g>
<!-- v212 -->
<g id="node12" class="node">
<title>v212</title>
<ellipse fill="none" stroke="black" cx="328.6" cy="-18" rx="28.7" ry="18"/>
<text text-anchor="middle" x="328.6" y="-14.3" font-family="Times,serif" font-size="14.00">v212</text>
</g>
<!-- v21&#45;&gt;v212 -->
<g id="edge12" class="edge">
<title>v21&#45;&gt;v212</title>
<path fill="none" stroke="black" d="M269.57,-74.83C279.77,-65.19 293.47,-52.23 305.11,-41.22"/>
<polygon fill="black" stroke="black" points="307.18,-44.08 312.04,-34.67 302.37,-39 307.18,-44.08"/>
</g>
<!-- v22&#45;&gt;v212 -->
<g id="edge13" class="edge">
<title>v22&#45;&gt;v212</title>
<path fill="none" stroke="black" d="M328.6,-71.7C328.6,-64.41 328.6,-55.73 328.6,-47.54"/>
<polygon fill="black" stroke="black" points="332.1,-47.62 328.6,-37.62 325.1,-47.62 332.1,-47.62"/>
</g>
<!-- v213 -->
<g id="node13" class="node">
<title>v213</title>
<ellipse fill="none" stroke="black" cx="403.6" cy="-18" rx="28.7" ry="18"/>
<text text-anchor="middle" x="403.6" y="-14.3" font-family="Times,serif" font-size="14.00">v213</text>
</g>
<!-- v22&#45;&gt;v213 -->
<g id="edge14" class="edge">
<title>v22&#45;&gt;v213</title>
<path fill="none" stroke="black" d="M343.77,-74.83C354.18,-65.13 368.18,-52.06 380.03,-41"/>
<polygon fill="black" stroke="black" points="382.16,-43.8 387.08,-34.42 377.38,-38.68 382.16,-43.8"/>
</g>
</g>
</svg>
